<svg id="Layer_1" enable-background="new 0 0 256 256" height="512" viewBox="0 0 256 256" width="512" xmlns="http://www.w3.org/2000/svg"><g><g><path d="m242.76 103.94v140.9c0 2.85-2.31 5.16-5.16 5.16h-219.2c-2.85 0-5.16-2.31-5.16-5.16v-140.9h79.67l.01.01c8.01 6.54 17.26 10.57 27.12 11.99l7.96 14.39 7.96-14.39c10.19-1.47 19.5-5.74 27.11-11.99l.01-.01z" fill="#72c1e8"/><path d="m228.133 241.823h-7.364c-1.381 0-2.5-1.119-2.5-2.5s1.119-2.5 2.5-2.5h7.364c1.381 0 2.5 1.119 2.5 2.5s-1.119 2.5-2.5 2.5zm-17.365 0h-186.69c-1.381 0-2.5-1.119-2.5-2.5v-124.31c0-1.381 1.119-2.5 2.5-2.5s2.5 1.119 2.5 2.5v121.81h184.19c1.381 0 2.5 1.119 2.5 2.5s-1.119 2.5-2.5 2.5z" fill="#c5e5ff"/><path d="m92.91 103.94h-79.67v-27.9c0-2.85 2.31-5.16 5.16-5.16h55.19c2.32 13.26 9.37 24.86 19.32 33.06z" fill="#afafaf"/><path d="m242.76 76.04v27.91h-79.69l.01-.01c9.95-8.2 17.01-19.8 19.33-33.06h55.19c2.85 0 5.16 2.32 5.16 5.16z" fill="#afafaf"/><circle cx="32.947" cy="87.411" fill="#fc5d3d" r="6.331"/><circle cx="57.357" cy="87.411" fill="#f0c020" r="6.331"/><path d="m188.08 155.855v28.46c0 .919-.103 1.817-.299 2.673l-14.607-2.798 2.354 12.316h-95.417c-6.731 0-12.191-5.461-12.191-12.192v-28.46c0-6.731 5.461-12.192 12.191-12.192h95.777c6.731.002 12.192 5.462 12.192 12.193z" fill="#f0c020"/><path d="m199.105 199.563 8.733-8.734-20.058-3.84-14.607-2.798 2.354 12.316 4.284 22.349 8.723-8.722 19.222 19.211 10.56-10.571z" fill="#fc5d3d"/><path d="m128 6c-34.24 0-60.36 30.88-54.41 64.88 2.32 13.26 9.37 24.86 19.32 33.06l.01.01c8.01 6.54 17.26 10.57 27.12 11.99l7.96 14.39 7.96-14.39c10.19-1.47 19.5-5.74 27.11-11.99l.01-.01c9.95-8.2 17.01-19.8 19.33-33.06 5.96-34.04-20.21-64.88-54.41-64.88z" fill="#13bf6d"/><path d="m126.188 108.996-4.949-.71c-1.367-.196-2.316-1.463-2.12-2.83.196-1.366 1.461-2.319 2.83-2.119l4.949.71c1.367.196 2.316 1.463 2.12 2.83-.198 1.376-1.478 2.316-2.83 2.119zm-15.152-3.353c-18.268-7.014-30.542-24.841-30.541-44.363 0-26.214 21.311-47.54 47.505-47.54 13.106 0 25.317 5.244 34.385 14.768.952 1 .913 2.582-.087 3.534-.999.951-2.583.913-3.534-.087-8.115-8.521-19.04-13.215-30.764-13.215-23.438 0-42.505 19.083-42.505 42.54 0 17.466 10.984 33.418 27.333 39.694 1.289.495 1.933 1.941 1.438 3.229-.495 1.29-1.94 1.935-3.23 1.44z" fill="#76ffba"/></g><g><path d="m32.95 78.58c-4.87 0-8.83 3.96-8.83 8.83 0 4.869 3.96 8.83 8.83 8.83 4.86 0 8.83-3.961 8.83-8.83 0-4.87-3.97-8.83-8.83-8.83zm0 12.66c-2.11 0-3.83-1.721-3.84-3.83.01-2.11 1.73-3.83 3.84-3.83s3.82 1.72 3.83 3.83c-.01 2.11-1.72 3.83-3.83 3.83z"/><path d="m57.36 78.58c-4.87 0-8.83 3.96-8.83 8.83 0 4.869 3.96 8.83 8.83 8.83s8.83-3.961 8.83-8.83c0-4.87-3.96-8.83-8.83-8.83zm0 12.66c-2.11 0-3.83-1.721-3.83-3.83 0-2.11 1.72-3.83 3.83-3.83s3.83 1.72 3.83 3.83-1.72 3.83-3.83 3.83z"/><path d="m106.75 183.304c0 1.381 1.119 2.5 2.5 2.5s2.5-1.119 2.5-2.5v-17.25c0-6.444-5.243-11.687-11.687-11.687s-11.686 5.242-11.686 11.687v17.25c0 1.381 1.119 2.5 2.5 2.5s2.5-1.119 2.5-2.5v-7.588h13.373zm-13.372-12.588v-4.662c0-3.687 3-6.687 6.686-6.687 3.687 0 6.687 3 6.687 6.687v4.662z"/><path d="m158.514 180.804h-11.764c-1.381 0-2.5 1.119-2.5 2.5s1.119 2.5 2.5 2.5h11.764c5.022 0 9.109-4.087 9.109-9.109s-4.087-9.109-9.109-9.109h-5.154c-2.266 0-4.109-1.843-4.109-4.108s1.844-4.109 4.109-4.109h11.764c1.381 0 2.5-1.119 2.5-2.5s-1.119-2.5-2.5-2.5h-11.764c-5.022 0-9.109 4.087-9.109 9.109s4.087 9.108 9.109 9.108h5.154c2.266 0 4.109 1.844 4.109 4.109s-1.844 4.109-4.109 4.109z"/><path d="m128.002 185.804c6.443 0 11.685-5.242 11.685-11.686v-8.066c0-6.443-5.242-11.685-11.685-11.685h-9.188c-1.381 0-2.5 1.119-2.5 2.5v26.437c0 1.381 1.119 2.5 2.5 2.5zm-6.688-26.437h6.688c3.686 0 6.685 2.999 6.685 6.685v8.066c0 3.687-2.999 6.686-6.685 6.686h-6.688z"/><path d="m190.58 155.859c0-8.1-6.59-14.689-14.69-14.699h-95.78c-8.1.01-14.69 6.6-14.69 14.699v28.46c0 8.091 6.59 14.681 14.69 14.69h1.42c1.38 0 2.5-1.12 2.5-2.5s-1.12-2.5-2.5-2.5h-1.42c-5.33-.01-9.68-4.36-9.69-9.69v-28.46c.01-5.34 4.36-9.689 9.69-9.699h95.78c5.33.01 9.68 4.359 9.69 9.699v28.163l-11.936-2.286c-1.729-.333-3.259 1.188-2.926 2.925l1.79 9.349h-70.978c-1.38 0-2.5 1.12-2.5 2.5s1.12 2.5 2.5 2.5h71.936l3.89 20.317c.376 1.966 2.805 2.713 4.223 1.297l6.956-6.955 17.453 17.444c.978.976 2.56.976 3.536-.002l10.561-10.571c.976-.977.976-2.559-.001-3.534l-17.444-17.443 6.966-6.966c1.417-1.417.67-3.846-1.298-4.223l-17.764-3.401c.052-1.165.036 3.622.036-29.114zm12.154 36.538-5.397 5.397c-.976.976-.976 2.559 0 3.535l17.444 17.444-7.026 7.034-17.453-17.443c-.978-.976-2.559-.976-3.535.001l-5.388 5.388-5.059-26.414c3.559.682 22.913 4.388 26.414 5.058z"/><circle cx="91.53" cy="196.51" r="2.5"/><circle cx="13.24" cy="181.16" r="2.5"/><path d="m121.767 39.608c-4.259-4.259-11.149-4.258-15.406 0-4.248 4.247-4.248 11.159 0 15.406 4.259 4.259 11.149 4.258 15.407 0 4.247-4.246 4.247-11.159-.001-15.406zm-3.535 11.871c-2.303 2.304-6.032 2.304-8.335 0-2.298-2.298-2.298-6.038 0-8.336 2.303-2.304 6.031-2.304 8.335 0 2.303 2.304 2.303 6.033 0 8.336z"/><path d="m149.64 82.887c4.259-4.257 4.258-11.149 0-15.405-4.247-4.247-11.159-4.249-15.406 0-4.259 4.257-4.258 11.149 0 15.405 4.246 4.246 11.158 4.248 15.406 0zm-11.871-11.87c2.304-2.304 6.032-2.304 8.336 0s2.304 6.031 0 8.335-6.032 2.304-8.336 0c-2.304-2.305-2.304-6.032 0-8.335z"/><path d="m112.317 80.466 34.9-34.9c.977-.977.977-2.559 0-3.535s-2.559-.977-3.535 0l-34.9 34.9c-.977.977-.977 2.559 0 3.535.976.976 2.56.976 3.535 0z"/><path d="m237.6 68.38h-52.29c.933-7.344.096-15.486-.28-16.24-.26-1.28-1.5-2.16-2.82-1.97-1.354.22-2.301 1.491-2.09 2.86 4.647 29.765-16.384 56.49-44.52 60.44-.78.11-1.44.57-1.83 1.26l-5.77 10.43-5.77-10.43c-.39-.69-1.06-1.15-1.83-1.26-24.812-3.405-45.16-25.155-45.16-52.29 0-28.906 23.491-52.68 52.76-52.68 19.018 0 36.51 10.341 45.83 26.62.65 1.15 2.24 1.59 3.41.93 1.19-.68 1.61-2.2.93-3.39 0-.01 0-.01 0-.02-10.079-17.588-28.81-29.14-50.17-29.14-32.194 0-57.76 26.214-57.76 57.68 0 3.316.308 5.777.45 7.2h-52.29c-4.22 0-7.66 3.43-7.66 7.66v95.12c0 1.38 1.12 2.5 2.5 2.5s2.5-1.12 2.5-2.5v-64.72h76.29c0 .01 0 .01.01 0 8.011 6.339 16.939 10.186 26.4 11.78l7.37 13.32c.95 1.729 3.445 1.702 4.38 0l7.37-13.32c9.739-1.635 18.668-5.669 26.39-11.78.01.01.01.01.01 0h76.3v138.4c0 1.47-1.2 2.66-2.66 2.66h-219.2c-1.46 0-2.66-1.19-2.66-2.66v-53.68c0-1.38-1.12-2.5-2.5-2.5s-2.5 1.12-2.5 2.5v53.68c0 4.22 3.44 7.66 7.66 7.66h219.2c4.22 0 7.66-3.44 7.66-7.66v-168.8c0-4.22-3.44-7.66-7.66-7.66zm-221.86 33.06v-25.4c0-1.47 1.19-2.66 2.66-2.66h53.14c2.119 10.069 7.194 20.014 14.98 28.06zm224.52 0h-70.79c3.534-3.642 6.296-7.432 8.66-11.53h44.67c1.38 0 2.5-1.12 2.5-2.5s-1.12-2.5-2.5-2.5h-42.12c2.135-4.676 3.482-9.826 3.79-11.53h53.13c1.46 0 2.66 1.19 2.66 2.66z"/><path d="m180.98 45.32c1.609-.575 1.956-2.073 1.498-3.258-.441-1.142-1.63-1.994-3.158-1.452-1.26.44-1.908 1.767-1.587 2.985.381 1.444 1.938 2.21 3.247 1.725z"/></g></g></svg>