<svg height="512" viewBox="0 0 128 128" width="512" xmlns="http://www.w3.org/2000/svg"><g><path d="m1.75 16.489h124.5v9.847h-124.5z" fill="#fff176"/><path d="m1.75 101.663h124.5v9.847h-124.5z" fill="#fff176"/><path d="m22.009 26.337h83.982v75.326h-83.982z" fill="#f5f8f9"/><g fill="#a79ba7"><path d="m52.142 81.645v-.01l-4.242-9.858a1.75 1.75 0 0 0 -3.215 0l-4.24 9.859v.007l-2.29 5.327a1.75 1.75 0 0 0 3.216 1.383l1.84-4.282h6.169l1.841 4.282a1.75 1.75 0 0 0 3.215-1.383zm-7.43-1.074 1.579-3.671 1.58 3.673z"/><path d="m67.22 70.719h-6.41a1.75 1.75 0 0 0 -1.75 1.75v15.192a1.75 1.75 0 0 0 1.75 1.75h6.41a5.92 5.92 0 0 0 5.913-5.911v-6.868a5.92 5.92 0 0 0 -5.913-5.913zm2.413 12.781a2.415 2.415 0 0 1 -2.413 2.413h-4.66v-11.694h4.66a2.415 2.415 0 0 1 2.413 2.413z"/><path d="m88.241 78.315h-7.215v-4.1h7.215a1.75 1.75 0 0 0 0-3.5h-8.965a1.75 1.75 0 0 0 -1.75 1.75v7.6a1.75 1.75 0 0 0 1.75 1.75h7.215v4.1h-7.215a1.75 1.75 0 0 0 0 3.5h8.965a1.75 1.75 0 0 0 1.75-1.75v-7.6a1.751 1.751 0 0 0 -1.75-1.75z"/></g><path d="m50.386 61.21v-19.377a2.6 2.6 0 0 1 3.648-2.381l22.027 9.689a2.6 2.6 0 0 1 0 4.761l-22.027 9.689a2.6 2.6 0 0 1 -3.648-2.381z" fill="#f77c90"/><g fill="#918291"><path d="m6.98 41.402h15.029v15.065h-15.029z"/><path d="m6.98 71.533h15.029v15.065h-15.029z"/><path d="m105.991 41.402h15.029v15.065h-15.029z"/><path d="m105.991 71.533h15.029v15.065h-15.029z"/></g><g fill="#a79ba7"><path d="m6.98 26.337h15.029v15.065h-15.029z"/><path d="m6.98 56.467h15.029v15.065h-15.029z"/><path d="m6.98 86.598h15.029v15.065h-15.029z"/><path d="m105.991 26.337h15.029v15.065h-15.029z"/><path d="m105.991 56.467h15.029v15.065h-15.029z"/><path d="m105.991 86.598h15.029v15.065h-15.029z"/></g></g></svg>