<svg height="512" viewBox="0 0 128 128" width="512" xmlns="http://www.w3.org/2000/svg" xmlns:xlink="http://www.w3.org/1999/xlink"><linearGradient id="a" gradientUnits="userSpaceOnUse" x1="117.184" x2="10.816" y1="119.653" y2="13.285"><stop offset="0" stop-color="#f77c90"/><stop offset="1" stop-color="#8cc9fe"/></linearGradient><path d="m15.61 25.521v59.384a3.754 3.754 0 0 0 3.75 3.75h89.28a3.755 3.755 0 0 0 3.75-3.75v-59.384a3.755 3.755 0 0 0 -3.75-3.75h-89.28a3.754 3.754 0 0 0 -3.75 3.75zm93.28 0v59.384a.251.251 0 0 1 -.25.25h-89.28a.251.251 0 0 1 -.25-.25v-59.384a.251.251 0 0 1 .25-.25h89.28a.251.251 0 0 1 .25.25zm15.36 67.96h-3.534v-74.281a5.756 5.756 0 0 0 -5.75-5.75h-16.716a1.75 1.75 0 0 0 0 3.5h16.716a2.253 2.253 0 0 1 2.25 2.25v74.281h-106.432v-74.281a2.252 2.252 0 0 1 2.25-2.25h73.778a1.75 1.75 0 0 0 0-3.5h-73.778a5.757 5.757 0 0 0 -5.75 5.75v74.281h-3.534a3.754 3.754 0 0 0 -3.75 3.75v7.574a9.761 9.761 0 0 0 9.75 9.75h108.5a9.761 9.761 0 0 0 9.75-9.75v-7.574a3.755 3.755 0 0 0 -3.75-3.75zm.25 11.324a6.257 6.257 0 0 1 -6.25 6.25h-108.5a6.257 6.257 0 0 1 -6.25-6.25v-7.574a.25.25 0 0 1 .25-.25h37.65v7.037a1.75 1.75 0 0 0 3.5 0v-7.037h38.2v5.287h-9.967a1.75 1.75 0 0 0 0 3.5h11.719a1.751 1.751 0 0 0 1.75-1.75v-7.037h37.648a.25.25 0 0 1 .25.25zm-85.433-40.388a1.751 1.751 0 0 0 2.3-.916l1.841-4.282h6.169l1.84 4.281a1.75 1.75 0 1 0 3.215-1.383l-2.29-5.325v-.01l-4.242-9.856a1.75 1.75 0 0 0 -3.215 0l-4.239 9.857v.01l-2.29 5.325a1.75 1.75 0 0 0 .911 2.299zm7.224-12.37 1.58 3.672h-3.159zm14.519 12.512h6.41a5.92 5.92 0 0 0 5.913-5.913v-6.866a5.92 5.92 0 0 0 -5.913-5.913h-6.41a1.751 1.751 0 0 0 -1.75 1.75v15.192a1.751 1.751 0 0 0 1.75 1.75zm1.75-15.192h4.66a2.416 2.416 0 0 1 2.413 2.413v6.866a2.415 2.415 0 0 1 -2.413 2.413h-4.66zm23.931 11.692v-4.1h-7.215a1.751 1.751 0 0 1 -1.75-1.75v-7.6a1.751 1.751 0 0 1 1.75-1.75h8.965a1.75 1.75 0 0 1 0 3.5h-7.215v4.1h7.215a1.75 1.75 0 0 1 1.75 1.75v7.6a1.75 1.75 0 0 1 -1.75 1.75h-8.965a1.75 1.75 0 1 1 0-3.5zm-23.931 42.959a1.75 1.75 0 0 1 -1.75 1.75h-5.34a1.75 1.75 0 0 1 0-3.5h5.34a1.75 1.75 0 0 1 1.75 1.75z" fill="url(#a)"/></svg>